<svg width="37" height="38" viewBox="0 0 37 38" fill="none" xmlns="http://www.w3.org/2000/svg">
<path d="M20.0417 25.3489H4.62504C4.21617 25.3489 3.82404 25.5109 3.53492 25.7992C3.2458 26.0875 3.08337 26.4786 3.08337 26.8863C3.08337 27.2941 3.2458 27.6851 3.53492 27.9734C3.82404 28.2618 4.21617 28.4237 4.62504 28.4237H20.0417C20.4506 28.4237 20.8427 28.2618 21.1318 27.9734C21.4209 27.6851 21.5834 27.2941 21.5834 26.8863C21.5834 26.4786 21.4209 26.0875 21.1318 25.7992C20.8427 25.5109 20.4506 25.3489 20.0417 25.3489ZM4.62504 13.0498H32.375C32.7839 13.0498 33.176 12.8878 33.4652 12.5995C33.7543 12.3112 33.9167 11.9201 33.9167 11.5124C33.9167 11.1046 33.7543 10.7136 33.4652 10.4253C33.176 10.137 32.7839 9.97498 32.375 9.97498H4.62504C4.21617 9.97498 3.82404 10.137 3.53492 10.4253C3.2458 10.7136 3.08337 11.1046 3.08337 11.5124C3.08337 11.9201 3.2458 12.3112 3.53492 12.5995C3.82404 12.8878 4.21617 13.0498 4.62504 13.0498ZM32.375 17.662H4.62504C4.21617 17.662 3.82404 17.8239 3.53492 18.1122C3.2458 18.4006 3.08337 18.7916 3.08337 19.1994C3.08337 19.6071 3.2458 19.9981 3.53492 20.2865C3.82404 20.5748 4.21617 20.7367 4.62504 20.7367H32.375C32.7839 20.7367 33.176 20.5748 33.4652 20.2865C33.7543 19.9981 33.9167 19.6071 33.9167 19.1994C33.9167 18.7916 33.7543 18.4006 33.4652 18.1122C33.176 17.8239 32.7839 17.662 32.375 17.662Z" fill="white"/>
</svg>
