<svg width="23" height="20" viewBox="0 0 22 23" fill="none" xmlns="http://www.w3.org/2000/svg">
<path d="M1.00012 5.29175C0.585909 5.29175 0.250122 5.62753 0.250122 6.04175C0.250122 6.45596 0.585909 6.79175 1.00012 6.79175V5.29175ZM21.5164 6.57208C21.8093 6.27918 21.8093 5.80431 21.5164 5.51142L16.7434 0.738447C16.4505 0.445554 15.9756 0.445554 15.6827 0.738447C15.3899 1.03134 15.3899 1.50621 15.6827 1.79911L19.9254 6.04175L15.6827 10.2844C15.3899 10.5773 15.3899 11.0522 15.6827 11.345C15.9756 11.6379 16.4505 11.6379 16.7434 11.345L21.5164 6.57208ZM1.00012 6.79175H20.986V5.29175H1.00012V6.79175Z" fill="black"/>
<path d="M20.9861 17.7917C21.4003 17.7917 21.7361 17.456 21.7361 17.0417C21.7361 16.6275 21.4003 16.2917 20.9861 16.2917V17.7917ZM0.469797 16.5114C0.176905 16.8043 0.176905 17.2792 0.469797 17.5721L5.24277 22.345C5.53566 22.6379 6.01054 22.6379 6.30343 22.345C6.59632 22.0522 6.59632 21.5773 6.30343 21.2844L2.06079 17.0417L6.30343 12.7991C6.59632 12.5062 6.59632 12.0313 6.30343 11.7384C6.01054 11.4456 5.53566 11.4456 5.24277 11.7384L0.469797 16.5114ZM20.9861 16.2917L1.00013 16.2917V17.7917L20.9861 17.7917V16.2917Z" fill="black"/>
</svg>
