<svg width="30" height="30" viewBox="0 0 30 30" fill="none" xmlns="http://www.w3.org/2000/svg">
<path d="M6.25024 14.9584C5.91872 14.9584 5.60078 15.0897 5.36636 15.3235C5.13194 15.5573 5.00024 15.8744 5.00024 16.205V26.1773C5.00024 26.5079 5.13194 26.8249 5.36636 27.0587C5.60078 27.2925 5.91872 27.4238 6.25024 27.4238C6.58176 27.4238 6.89971 27.2925 7.13413 27.0587C7.36855 26.8249 7.50024 26.5079 7.50024 26.1773V16.205C7.50024 15.8744 7.36855 15.5573 7.13413 15.3235C6.89971 15.0897 6.58176 14.9584 6.25024 14.9584ZM12.5002 2.49304C12.1687 2.49304 11.8508 2.62437 11.6164 2.85814C11.3819 3.09192 11.2502 3.40898 11.2502 3.73958V26.1773C11.2502 26.5079 11.3819 26.8249 11.6164 27.0587C11.8508 27.2925 12.1687 27.4238 12.5002 27.4238C12.8318 27.4238 13.1497 27.2925 13.3841 27.0587C13.6185 26.8249 13.7502 26.5079 13.7502 26.1773V3.73958C13.7502 3.40898 13.6185 3.09192 13.3841 2.85814C13.1497 2.62437 12.8318 2.49304 12.5002 2.49304ZM25.0002 19.9446C24.6687 19.9446 24.3508 20.0759 24.1164 20.3097C23.8819 20.5434 23.7502 20.8605 23.7502 21.1911V26.1773C23.7502 26.5079 23.8819 26.8249 24.1164 27.0587C24.3508 27.2925 24.6687 27.4238 25.0002 27.4238C25.3318 27.4238 25.6497 27.2925 25.8841 27.0587C26.1185 26.8249 26.2502 26.5079 26.2502 26.1773V21.1911C26.2502 20.8605 26.1185 20.5434 25.8841 20.3097C25.6497 20.0759 25.3318 19.9446 25.0002 19.9446ZM18.7502 9.97227C18.4187 9.97227 18.1008 10.1036 17.8664 10.3374C17.6319 10.5711 17.5002 10.8882 17.5002 11.2188V26.1773C17.5002 26.5079 17.6319 26.8249 17.8664 27.0587C18.1008 27.2925 18.4187 27.4238 18.7502 27.4238C19.0818 27.4238 19.3997 27.2925 19.6341 27.0587C19.8685 26.8249 20.0002 26.5079 20.0002 26.1773V11.2188C20.0002 10.8882 19.8685 10.5711 19.6341 10.3374C19.3997 10.1036 19.0818 9.97227 18.7502 9.97227Z" fill="white"/>
</svg>
