<svg width="30" height="30" viewBox="0 0 30 30" fill="none" xmlns="http://www.w3.org/2000/svg">
<path d="M25.2001 6.23271C23.8751 4.9079 22.1186 4.09932 20.248 3.95301C18.3774 3.8067 16.5161 4.33233 15.0001 5.43493C13.4097 4.25525 11.4301 3.72033 9.46 3.93789C7.48991 4.15544 5.67565 5.10931 4.38257 6.6074C3.08948 8.1055 2.41363 10.0365 2.4911 12.0117C2.56858 13.9868 3.39362 15.8593 4.8001 17.2521L12.5626 25.0056C13.2126 25.6435 14.0881 26.0011 15.0001 26.0011C15.9121 26.0011 16.7876 25.6435 17.4376 25.0056L25.2001 17.2521C26.6596 15.7878 27.4788 13.807 27.4788 11.7424C27.4788 9.6778 26.6596 7.69706 25.2001 6.23271ZM23.4376 15.5319L15.6751 23.2729C15.5868 23.3618 15.4816 23.4324 15.3658 23.4806C15.2499 23.5288 15.1256 23.5536 15.0001 23.5536C14.8746 23.5536 14.7503 23.5288 14.6344 23.4806C14.5186 23.4324 14.4134 23.3618 14.3251 23.2729L6.5626 15.4945C5.5823 14.4952 5.03336 13.1528 5.03336 11.7549C5.03336 10.3569 5.5823 9.01455 6.5626 8.01526C7.56154 7.03173 8.90882 6.48024 10.3126 6.48024C11.7164 6.48024 13.0637 7.03173 14.0626 8.01526C14.1788 8.1321 14.3171 8.22483 14.4694 8.28812C14.6217 8.3514 14.7851 8.38399 14.9501 8.38399C15.1151 8.38399 15.2785 8.3514 15.4308 8.28812C15.5831 8.22483 15.7214 8.1321 15.8376 8.01526C16.8365 7.03173 18.1838 6.48024 19.5876 6.48024C20.9914 6.48024 22.3387 7.03173 23.3376 8.01526C24.3314 9.00146 24.8983 10.3366 24.917 11.7345C24.9357 13.1325 24.4047 14.4822 23.4376 15.4945V15.5319Z" fill="white"/>
</svg>
