<svg width="30" height="30" viewBox="0 0 30 30" fill="none" xmlns="http://www.w3.org/2000/svg">
<path d="M25.2003 6.23271C23.8753 4.9079 22.1189 4.09932 20.2483 3.95301C18.3777 3.8067 16.5163 4.33233 15.0003 5.43493C13.4099 4.25525 11.4303 3.72033 9.46024 3.93789C7.49016 4.15544 5.67589 5.10931 4.38281 6.6074C3.08973 8.1055 2.41387 10.0365 2.49135 12.0117C2.56882 13.9868 3.39387 15.8593 4.80034 17.2521L12.5628 25.0056C13.2129 25.6435 14.0883 26.0011 15.0003 26.0011C15.9124 26.0011 16.7878 25.6435 17.4378 25.0056L25.2003 17.2521C26.6598 15.7878 27.479 13.807 27.479 11.7424C27.479 9.6778 26.6598 7.69706 25.2003 6.23271ZM23.4378 15.5319L15.6753 23.2729C15.587 23.3618 15.4819 23.4324 15.366 23.4806C15.2502 23.5288 15.1259 23.5536 15.0003 23.5536C14.8748 23.5536 14.7505 23.5288 14.6347 23.4806C14.5188 23.4324 14.4137 23.3618 14.3253 23.2729L6.56284 15.4945C5.58254 14.4952 5.03361 13.1528 5.03361 11.7549C5.03361 10.3569 5.58254 9.01455 6.56284 8.01526C7.56179 7.03173 8.90906 6.48024 10.3128 6.48024C11.7166 6.48024 13.0639 7.03173 14.0628 8.01526C14.179 8.1321 14.3173 8.22483 14.4696 8.28812C14.6219 8.3514 14.7853 8.38399 14.9503 8.38399C15.1154 8.38399 15.2787 8.3514 15.4311 8.28812C15.5834 8.22483 15.7216 8.1321 15.8378 8.01526C16.8368 7.03173 18.1841 6.48024 19.5878 6.48024C20.9916 6.48024 22.3389 7.03173 23.3378 8.01526C24.3316 9.00146 24.8986 10.3366 24.9173 11.7345C24.936 13.1325 24.4049 14.4822 23.4378 15.4945V15.5319Z" fill="white"/>
</svg>
