<svg width="30" height="30" viewBox="0 0 30 30" fill="none" xmlns="http://www.w3.org/2000/svg">
<path d="M25.2 6.23247C23.875 4.90766 22.1185 4.09907 20.2479 3.95276C18.3773 3.80646 16.516 4.33208 15 5.43469C13.4096 4.25501 11.43 3.72009 9.4599 3.93764C7.48981 4.15519 5.67555 5.10906 4.38247 6.60716C3.08938 8.10526 2.41353 10.0363 2.491 12.0114C2.56848 13.9866 3.39352 15.8591 4.8 17.2519L12.5625 25.0053C13.2125 25.6433 14.088 26.0008 15 26.0008C15.912 26.0008 16.7875 25.6433 17.4375 25.0053L25.2 17.2519C26.6595 15.7875 27.4787 13.8068 27.4787 11.7422C27.4787 9.67756 26.6595 7.69682 25.2 6.23247ZM23.4375 15.5316L15.675 23.2726C15.5867 23.3616 15.4815 23.4322 15.3657 23.4804C15.2498 23.5286 15.1255 23.5534 15 23.5534C14.8745 23.5534 14.7502 23.5286 14.6343 23.4804C14.5185 23.4322 14.4133 23.3616 14.325 23.2726L6.5625 15.4942C5.5822 14.495 5.03326 13.1526 5.03326 11.7546C5.03326 10.3567 5.5822 9.01431 6.5625 8.01502C7.56144 7.03149 8.90872 6.47999 10.3125 6.47999C11.7163 6.47999 13.0636 7.03149 14.0625 8.01502C14.1787 8.13185 14.317 8.22459 14.4693 8.28787C14.6216 8.35116 14.785 8.38374 14.95 8.38374C15.115 8.38374 15.2784 8.35116 15.4307 8.28787C15.583 8.22459 15.7213 8.13185 15.8375 8.01502C16.8364 7.03149 18.1837 6.47999 19.5875 6.47999C20.9913 6.47999 22.3386 7.03149 23.3375 8.01502C24.3313 9.00122 24.8982 10.3363 24.9169 11.7343C24.9356 13.1323 24.4046 14.482 23.4375 15.4942V15.5316Z" fill="#FF5252"/>
</svg>
