<svg width="23" height="25" viewBox="0 0 23 25" fill="none" xmlns="http://www.w3.org/2000/svg">
<path d="M20.8055 20.9678L17.2501 17.298C18.6302 15.5074 19.2985 13.2346 19.1177 10.947C18.9369 8.65931 17.9206 6.5307 16.2779 4.99882C14.6352 3.46694 12.4908 2.64822 10.2858 2.711C8.0808 2.77379 5.9827 3.71331 4.42294 5.33638C2.86317 6.95945 1.9603 9.1427 1.89996 11.4372C1.83962 13.7317 2.62641 15.9631 4.09854 17.6725C5.57067 19.3819 7.61626 20.4394 9.81467 20.6276C12.0131 20.8157 14.1972 20.1203 15.918 18.6842L19.4447 22.354C19.5338 22.4474 19.6398 22.5216 19.7565 22.5723C19.8733 22.6229 19.9986 22.6489 20.1251 22.6489C20.2516 22.6489 20.3769 22.6229 20.4936 22.5723C20.6104 22.5216 20.7164 22.4474 20.8055 22.354C20.9782 22.168 21.0748 21.9195 21.0748 21.6609C21.0748 21.4023 20.9782 21.1538 20.8055 20.9678ZM10.5418 18.6842C9.21498 18.6842 7.91799 18.2748 6.81481 17.5077C5.71163 16.7407 4.8518 15.6505 4.34407 14.3749C3.83633 13.0994 3.70348 11.6958 3.96232 10.3417C4.22117 8.9876 4.86007 7.74377 5.79825 6.76752C6.73643 5.79126 7.93174 5.12642 9.23303 4.85707C10.5343 4.58773 11.8831 4.72597 13.1089 5.25431C14.3347 5.78266 15.3824 6.67738 16.1195 7.82533C16.8567 8.97329 17.2501 10.3229 17.2501 11.7036C17.2501 13.5549 16.5433 15.3305 15.2853 16.6396C14.0272 17.9487 12.3209 18.6842 10.5418 18.6842Z" fill="#0260E8"/>
</svg>
