<svg width="30" height="30" viewBox="0 0 30 30" fill="none" xmlns="http://www.w3.org/2000/svg">
<path fill-rule="evenodd" clip-rule="evenodd" d="M14.1161 2.86612C14.6043 2.37796 15.3957 2.37796 15.8839 2.86612L20.8839 7.86612C21.372 8.35427 21.372 9.14573 20.8839 9.63388C20.3957 10.122 19.6043 10.122 19.1161 9.63388L15 5.51777L10.8839 9.63388C10.3957 10.122 9.60427 10.122 9.11612 9.63388C8.62796 9.14573 8.62796 8.35427 9.11612 7.86612L14.1161 2.86612Z" fill="#9E9E9E"/>
<path fill-rule="evenodd" clip-rule="evenodd" d="M15 2.5C15.6904 2.5 16.25 3.05964 16.25 3.75V18.75C16.25 19.4404 15.6904 20 15 20C14.3096 20 13.75 19.4404 13.75 18.75V3.75C13.75 3.05964 14.3096 2.5 15 2.5Z" fill="#9E9E9E"/>
<path fill-rule="evenodd" clip-rule="evenodd" d="M6.25 15C6.94036 15 7.5 15.5596 7.5 16.25V22.5C7.5 23.8807 8.61929 25 10 25H20C21.3807 25 22.5 23.8807 22.5 22.5V16.25C22.5 15.5596 23.0596 15 23.75 15C24.4404 15 25 15.5596 25 16.25V22.5C25 25.2614 22.7614 27.5 20 27.5H10C7.23858 27.5 5 25.2614 5 22.5V16.25C5 15.5596 5.55964 15 6.25 15Z" fill="#9E9E9E"/>
</svg>
