<svg width="29" height="29" viewBox="0 0 29 29" fill="none" xmlns="http://www.w3.org/2000/svg">
<path d="M14.5 19.0313C11.9988 19.0313 9.96875 17.0013 9.96875 14.5C9.96875 11.9988 11.9988 9.96875 14.5 9.96875C17.0013 9.96875 19.0313 11.9988 19.0313 14.5C19.0313 17.0013 17.0013 19.0313 14.5 19.0313ZM14.5 11.7813C13.0017 11.7813 11.7813 13.0017 11.7813 14.5C11.7813 15.9983 13.0017 17.2188 14.5 17.2188C15.9983 17.2188 17.2188 15.9983 17.2188 14.5C17.2188 13.0017 15.9983 11.7813 14.5 11.7813Z" fill="#0260E8" fill-opacity="0.8"/>
<path d="M18.3791 26.8129C18.1253 26.8129 17.8716 26.7766 17.6178 26.7162C16.8687 26.5108 16.2403 26.0395 15.8416 25.3749L15.6966 25.1333C14.9837 23.9008 14.0049 23.9008 13.292 25.1333L13.1591 25.3629C12.7603 26.0395 12.132 26.5229 11.3828 26.7162C10.6216 26.9216 9.83616 26.8129 9.17158 26.4141L7.09324 25.2179C6.35616 24.7949 5.82449 24.1062 5.59491 23.2724C5.37741 22.4387 5.48616 21.5808 5.90908 20.8437C6.25949 20.2274 6.35616 19.6716 6.15074 19.3212C5.94533 18.9708 5.42574 18.7654 4.71283 18.7654C2.94866 18.7654 1.51074 17.3274 1.51074 15.5633V13.4366C1.51074 11.6724 2.94866 10.2345 4.71283 10.2345C5.42574 10.2345 5.94533 10.0291 6.15074 9.67869C6.35616 9.32827 6.27158 8.77244 5.90908 8.15619C5.48616 7.41911 5.37741 6.54911 5.59491 5.72744C5.81241 4.89369 6.34408 4.20494 7.09324 3.78202L9.18366 2.58577C10.5491 1.77619 12.3495 2.24744 13.1712 3.63702L13.3162 3.87869C14.0291 5.11119 15.0078 5.11119 15.7207 3.87869L15.8537 3.64911C16.6753 2.24744 18.4757 1.77619 19.8532 2.59786L21.9316 3.79411C22.6687 4.21702 23.2003 4.90577 23.4299 5.73952C23.6474 6.57327 23.5387 7.43119 23.1157 8.16827C22.7653 8.78452 22.6687 9.34036 22.8741 9.69077C23.0795 10.0412 23.5991 10.2466 24.312 10.2466C26.0762 10.2466 27.5141 11.6845 27.5141 13.4487V15.5754C27.5141 17.3395 26.0762 18.7774 24.312 18.7774C23.5991 18.7774 23.0795 18.9829 22.8741 19.3333C22.6687 19.6837 22.7532 20.2395 23.1157 20.8558C23.5387 21.5929 23.6595 22.4629 23.4299 23.2845C23.2124 24.1183 22.6807 24.807 21.9316 25.2299L19.8412 26.4262C19.382 26.6799 18.8866 26.8129 18.3791 26.8129ZM14.5003 22.342C15.5757 22.342 16.5787 23.0187 17.2674 24.2149L17.4003 24.4445C17.5453 24.6983 17.787 24.8795 18.077 24.952C18.367 25.0245 18.657 24.9883 18.8987 24.8433L20.9891 23.6349C21.3032 23.4537 21.5449 23.1516 21.6416 22.7891C21.7382 22.4266 21.6899 22.052 21.5087 21.7379C20.8199 20.5537 20.7353 19.3333 21.267 18.4029C21.7987 17.4724 22.8982 16.9408 24.2757 16.9408C25.0491 16.9408 25.6653 16.3245 25.6653 15.5512V13.4245C25.6653 12.6633 25.0491 12.0349 24.2757 12.0349C22.8982 12.0349 21.7987 11.5033 21.267 10.5729C20.7353 9.64244 20.8199 8.42202 21.5087 7.23786C21.6899 6.92369 21.7382 6.54911 21.6416 6.18661C21.5449 5.82411 21.3153 5.53411 21.0012 5.34077L18.9107 4.14452C18.3912 3.83036 17.7024 4.01161 17.3882 4.54327L17.2553 4.77286C16.5666 5.96911 15.5637 6.64577 14.4882 6.64577C13.4128 6.64577 12.4099 5.96911 11.7212 4.77286L11.5882 4.53119C11.2862 4.02369 10.6095 3.84244 10.0899 4.14452L7.99949 5.35286C7.68533 5.53411 7.44366 5.83619 7.34699 6.19869C7.25033 6.56119 7.29866 6.93577 7.47991 7.24994C8.16866 8.43411 8.25324 9.65452 7.72158 10.5849C7.18991 11.5154 6.09033 12.047 4.71283 12.047C3.93949 12.047 3.32324 12.6633 3.32324 13.4366V15.5633C3.32324 16.3245 3.93949 16.9529 4.71283 16.9529C6.09033 16.9529 7.18991 17.4845 7.72158 18.4149C8.25324 19.3454 8.16866 20.5658 7.47991 21.7499C7.29866 22.0641 7.25033 22.4387 7.34699 22.8012C7.44366 23.1637 7.67324 23.4537 7.98741 23.647L10.0778 24.8433C10.3316 25.0004 10.6337 25.0366 10.9116 24.9641C11.2016 24.8916 11.4432 24.6983 11.6003 24.4445L11.7332 24.2149C12.422 23.0308 13.4249 22.342 14.5003 22.342Z" fill="#0260E8" fill-opacity="0.8"/>
</svg>
