<svg width="38" height="38" viewBox="0 0 38 38" fill="none" xmlns="http://www.w3.org/2000/svg">
<rect x="4.75" y="4.75" width="28.5" height="28.5" rx="14.25" stroke="#FF5252" stroke-width="1.5"/>
<path d="M18.5713 11.7949C18.7656 11.472 19.2337 11.472 19.4281 11.7949L21.4963 15.2315C21.5661 15.3475 21.68 15.4303 21.8119 15.4608L25.7195 16.3658C26.0866 16.4509 26.2313 16.8961 25.9842 17.1807L23.3549 20.2097C23.2661 20.3119 23.2226 20.4458 23.2343 20.5807L23.5811 24.5767C23.6137 24.9521 23.235 25.2273 22.888 25.0803L19.1947 23.5156C19.0701 23.4628 18.9293 23.4628 18.8046 23.5156L15.1114 25.0803C14.7644 25.2273 14.3856 24.9521 14.4182 24.5767L14.765 20.5807C14.7767 20.4458 14.7332 20.3119 14.6445 20.2097L12.0151 17.1807C11.7681 16.8961 11.9127 16.4509 12.2799 16.3658L16.1875 15.4608C16.3194 15.4303 16.4332 15.3475 16.5031 15.2315L18.5713 11.7949Z" stroke="#FF5252" stroke-width="1.5"/>
</svg>
