<svg width="274" height="82" viewBox="0 0 274 82" fill="none" xmlns="http://www.w3.org/2000/svg">
<path d="M30.016 26.624H19.712V64H11.456V26.624H1.152V19.392H30.016V26.624ZM45.664 64.832C42.2293 64.832 39.392 64.1067 37.152 62.656C34.912 61.184 33.2693 59.2213 32.224 56.768C31.2 54.3147 30.688 51.5413 30.688 48.448C30.688 45.2907 31.264 42.4213 32.416 39.84C33.5893 37.2373 35.296 35.1787 37.536 33.664C39.776 32.128 42.4427 31.36 45.536 31.36C50.144 31.36 53.44 32.6933 55.424 35.36C57.408 38.0053 58.4 41.9627 58.4 47.232C58.4 48.256 58.3573 49.408 58.272 50.688H39.072C39.2 53.2693 39.9147 55.264 41.216 56.672C42.5387 58.0587 44.4693 58.752 47.008 58.752C48.3307 58.752 49.7493 58.464 51.264 57.888C52.7787 57.2907 53.8987 56.576 54.624 55.744L57.184 61.824C54.176 63.8293 50.336 64.832 45.664 64.832ZM50.272 45.696C50.272 42.56 49.8773 40.4053 49.088 39.232C48.32 38.0373 47.2 37.44 45.728 37.44C43.6587 37.44 42.048 38.208 40.896 39.744C39.7653 41.28 39.136 43.264 39.008 45.696H50.272ZM78.4675 64.768C75.2035 64.768 72.4835 64.032 70.3075 62.56C68.1315 61.0667 66.5208 59.072 65.4755 56.576C64.4515 54.08 63.9395 51.2853 63.9395 48.192C63.9395 45.1627 64.5155 42.368 65.6675 39.808C66.8195 37.248 68.5262 35.2 70.7875 33.664C73.0488 32.128 75.7582 31.36 78.9155 31.36C80.8782 31.36 82.5848 31.5733 84.0355 32C85.5075 32.4053 86.9155 33.152 88.2595 34.24L85.6355 41.024C85.0168 40.1067 84.0995 39.3813 82.8835 38.848C81.6888 38.2933 80.5155 38.016 79.3635 38.016C74.7128 38.016 72.3875 41.3867 72.3875 48.128C72.3875 51.648 72.9528 54.2187 74.0835 55.84C75.2355 57.44 76.9955 58.24 79.3635 58.24C80.7928 58.24 82.0942 57.9733 83.2675 57.44C84.4622 56.9067 85.4008 56.256 86.0835 55.488L88.5155 61.184C88.0462 61.696 87.3315 62.2293 86.3715 62.784C85.4328 63.3173 84.2808 63.776 82.9155 64.16C81.5502 64.5653 80.0675 64.768 78.4675 64.768ZM112.143 31.36C115.279 31.36 117.647 32.3733 119.247 34.4C120.868 36.4053 121.679 39.2533 121.679 42.944V64H113.487V43.776C113.487 41.984 113.06 40.544 112.207 39.456C111.353 38.368 110.18 37.824 108.687 37.824C107.684 37.824 106.735 38.08 105.839 38.592C104.964 39.104 104.26 39.8187 103.727 40.736C103.193 41.632 102.927 42.6453 102.927 43.776V64H95.0545V15.232H102.607V31.36L102.447 36.16C104.644 32.96 107.876 31.36 112.143 31.36Z" fill="white"/>
<path d="M199.48 18.432H208.44V26.944H199.48V18.432ZM199.8 32.128H208.12V64H199.8V32.128ZM226.378 64.576C223.327 64.576 220.927 64.2027 219.178 63.456C217.45 62.688 216.223 61.8667 215.498 60.992L217.866 54.912C220.596 57.1733 223.498 58.304 226.57 58.304C227.956 58.304 228.98 58.0267 229.642 57.472C230.324 56.896 230.666 56.192 230.666 55.36C230.666 54.464 230.079 53.6427 228.906 52.896C227.754 52.128 226.036 51.2427 223.754 50.24C222.282 49.6 221.002 48.928 219.914 48.224C218.826 47.52 217.876 46.5707 217.066 45.376C216.276 44.16 215.882 42.688 215.882 40.96C215.882 39.04 216.351 37.3653 217.29 35.936C218.25 34.5067 219.636 33.408 221.45 32.64C223.263 31.872 225.439 31.488 227.978 31.488C229.492 31.488 230.911 31.6587 232.234 32C233.578 32.32 234.719 32.7253 235.658 33.216C236.596 33.6853 237.279 34.1333 237.706 34.56L235.53 40.32C234.548 39.5733 233.418 38.944 232.138 38.432C230.879 37.8987 229.578 37.632 228.234 37.632C226.634 37.632 225.503 37.8453 224.842 38.272C224.202 38.6773 223.882 39.36 223.882 40.32C223.882 41.28 224.351 42.08 225.29 42.72C226.25 43.36 227.722 44.0747 229.706 44.864C232.564 45.9947 234.762 47.3387 236.298 48.896C237.834 50.432 238.602 52.3093 238.602 54.528C238.602 56.384 238.175 58.0693 237.322 59.584C236.49 61.0773 235.156 62.2827 233.322 63.2C231.508 64.1173 229.194 64.576 226.378 64.576ZM245.867 15.36H253.419V39.232L253.163 46.72L262.955 32.128H272.043L260.907 46.784L273.131 64H263.467L253.163 48.576L253.419 56.384V64H245.867V15.36Z" fill="white"/>
<path d="M139.344 19.392C144.379 19.392 148.368 20.5867 151.312 22.976C154.256 25.344 155.728 29.3547 155.728 35.008C155.728 38.08 155.152 40.9067 154 43.488C152.848 46.048 151.056 48.1173 148.624 49.696C146.213 51.2533 143.205 52.032 139.6 52.032H135.632V64H127.376V19.392H139.344ZM139.024 45.312C141.819 45.312 143.92 44.48 145.328 42.816C146.757 41.1307 147.472 38.6773 147.472 35.456C147.472 33.216 147.195 31.4027 146.64 30.016C146.085 28.608 145.168 27.5627 143.888 26.88C142.629 26.1973 140.944 25.856 138.832 25.856H135.632V45.312H139.024Z" fill="white"/>
<path d="M175.792 61.2776C166.601 61.2776 159.135 53.8329 159.135 44.6675C159.135 35.5021 166.601 28.0574 175.792 28.0574C184.983 28.0574 192.448 35.5021 192.448 44.6675C192.448 53.8329 184.983 61.2776 175.792 61.2776ZM175.792 30.6128C168.019 30.6128 161.698 36.9161 161.698 44.6675C161.698 52.4189 168.019 58.7222 175.792 58.7222C183.565 58.7222 189.885 52.4189 189.885 44.6675C189.885 36.9161 183.565 30.6128 175.792 30.6128Z" fill="white" fill-opacity="0.87"/>
<path d="M191.44 64.753C191.303 64.753 191.167 64.736 191.047 64.719C190.244 64.6167 188.792 64.0716 187.972 61.6354C187.545 60.3577 187.699 59.08 188.399 58.109C189.1 57.1379 190.278 56.5928 191.628 56.5928C193.37 56.5928 194.737 57.2572 195.352 58.4327C195.967 59.6081 195.796 61.1073 194.823 62.5554C193.61 64.3782 192.294 64.753 191.44 64.753ZM190.415 60.8347C190.705 61.7206 191.115 62.1636 191.389 62.1976C191.662 62.2317 192.175 61.908 192.704 61.1414C193.2 60.4088 193.234 59.8807 193.114 59.6422C192.995 59.4037 192.516 59.1482 191.628 59.1482C191.098 59.1482 190.705 59.3185 190.483 59.6081C190.278 59.8978 190.244 60.3407 190.415 60.8347Z" fill="white" fill-opacity="0.87"/>
</svg>
